<svg width="100" height="45" viewBox="0 0 100 45" fill="none" xmlns="http://www.w3.org/2000/svg">
<path d="M32.8748 29.0071C32.5468 29.4384 32.2391 29.8853 31.8887 30.2963C30.7071 31.6932 29.1932 32.5534 27.4119 32.9082C26.6099 33.0677 25.7743 33.189 24.9612 33.1575C22.0635 33.043 19.624 31.9829 17.9304 29.517C17.7888 29.3126 17.6496 29.106 17.4609 28.8297C16.203 31.1587 14.4554 32.6881 11.8587 33.061C9.2957 33.4293 7.12356 32.7083 5.37821 30.5882C5.34901 30.8555 5.3243 30.9858 5.32205 31.116C5.31756 31.6056 5.31531 32.093 5.32205 32.5826C5.3243 32.7959 5.25466 32.9105 5.0233 32.9105C3.44417 32.906 1.86504 32.9082 0.285915 32.9105C0.0770118 32.9105 -0.0083464 32.8094 0.000638672 32.6095C0.00513121 32.5085 0.000638672 32.4096 0.000638672 32.3086C0.000638672 24.9601 0.000638672 17.6161 0.000638672 10.2743C0.000638672 9.68813 0.000638668 9.68364 0.575684 9.6814C1.96612 9.6814 3.35881 9.6814 4.74925 9.68364C5.32205 9.68364 5.32205 9.69038 5.32205 10.2743C5.32205 12.5426 5.32205 14.811 5.32205 17.0793C5.32205 17.2388 5.32205 17.3982 5.32205 17.5577C5.36024 17.5869 5.39842 17.6161 5.43661 17.6475C6.21607 16.7177 7.11682 15.9631 8.25568 15.5566C9.42374 15.1411 10.6322 15.0513 11.8497 15.2265C13.0604 15.3994 14.1611 15.8553 15.154 16.5942C16.1401 17.3308 16.8274 18.2988 17.4586 19.4038C17.6114 19.2084 17.7394 19.0759 17.8315 18.9232C18.6694 17.5217 19.8756 16.5201 21.3514 15.8935C23.2248 15.0984 25.1948 14.9547 27.1985 15.314C28.9079 15.6217 30.4084 16.3449 31.6281 17.5891C32.0145 17.9844 32.32 18.456 32.6636 18.894C32.7378 18.9905 32.8096 19.0894 32.9422 19.2668C32.9714 19.04 33.0028 18.9007 33.0028 18.7592C33.0073 17.8204 33.0028 16.8794 33.0073 15.9406C33.0073 15.469 33.0837 15.3949 33.5509 15.3927C35.0042 15.3927 36.4598 15.3927 37.9132 15.3927C38.3624 15.3927 38.4051 15.4398 38.4096 15.8935C38.4118 16.4033 38.4096 16.9109 38.4096 17.5173C38.5781 17.405 38.6702 17.369 38.7286 17.3039C40.3549 15.5139 42.4214 15.0198 44.7328 15.2669C46.3726 15.4421 47.7294 16.1697 48.8053 17.4252C49.3377 18.0473 49.6679 18.7749 49.9711 19.5206C49.9936 19.5767 50.0251 19.6284 50.0969 19.7699C50.2968 19.4577 50.4788 19.2084 50.6271 18.9389C51.539 17.2702 52.8846 16.1181 54.6906 15.5229C56.2876 14.9974 57.8915 15.0019 59.4818 15.5499C60.4837 15.8957 61.326 16.4999 62.0448 17.2769C62.1257 17.3645 62.2066 17.4544 62.3548 17.6206C62.3773 17.378 62.402 17.2253 62.402 17.0726C62.4042 14.7795 62.4132 12.4865 62.3952 10.1935C62.393 9.80267 62.548 9.68364 62.8962 9.68364C64.3877 9.68589 65.8792 9.68813 67.3707 9.68364C67.7032 9.68364 67.8222 9.81615 67.8222 10.1575C67.8132 17.5756 67.8155 24.9938 67.8155 32.4141C67.8155 32.8723 67.7796 32.906 67.3236 32.906C65.8455 32.906 64.3652 32.8992 62.8872 32.9105C62.53 32.9127 62.3908 32.778 62.3997 32.4231C62.4155 31.8504 62.4042 31.28 62.3571 30.6713C60.7061 32.6477 58.6193 33.3731 56.1169 33.0812C53.6101 32.7892 51.8782 31.3923 50.5013 29.3508C50.4878 29.49 50.4608 29.6293 50.4608 29.7707C50.4563 30.6489 50.4608 31.5248 50.4586 32.4029C50.4586 32.8386 50.3889 32.906 49.9554 32.906C48.538 32.906 47.1229 32.906 45.7055 32.906C45.1035 32.906 45.099 32.906 45.099 32.3063C45.099 29.3732 45.1057 26.4424 45.0945 23.5092C45.09 22.6356 44.9844 21.7732 44.479 21.0186C43.7827 19.9787 42.235 19.4532 40.9546 19.7586C39.3216 20.1494 38.4725 21.4206 38.45 22.9163C38.4029 26.0493 38.4186 29.1823 38.4073 32.3131C38.4073 32.7083 38.2044 32.906 37.7986 32.906C36.3947 32.906 34.9908 32.906 33.5869 32.906C33.041 32.906 33.0051 32.8701 33.0051 32.3355C33.0051 31.3698 33.0051 30.4063 33.0051 29.4406C33.0051 29.2991 32.9826 29.1554 32.9714 29.0139C32.9399 29.0116 32.9107 29.0094 32.8793 29.0071H32.8748ZM5.27039 24.1471C5.32879 24.5536 5.38045 24.9623 5.44335 25.3688C5.71739 27.1026 7.52564 28.8454 9.76966 28.4187C11.0635 28.1739 11.9688 27.4575 12.5213 26.3099C12.9886 25.3374 13.1099 24.2998 12.9189 23.2105C12.7145 22.0494 12.2361 21.1017 11.241 20.4346C9.63489 19.3566 7.31 19.7317 6.18237 21.2566C5.54892 22.1146 5.30857 23.0915 5.27039 24.1471ZM62.3818 24.1583C62.3818 23.9449 62.3908 23.7316 62.3818 23.5205C62.3166 22.1977 61.7438 21.1421 60.6454 20.4099C58.936 19.269 56.5325 19.7676 55.4745 21.5306C54.5356 23.0915 54.5378 24.7512 55.297 26.3907C56.209 28.3558 58.6867 29.1441 60.5758 27.9179C61.9213 27.0443 62.4739 25.7439 62.3818 24.1606V24.1583ZM27.4164 25.4542C25.7137 25.4542 24.011 25.4542 22.3061 25.4542C21.8321 25.4542 21.7917 25.4834 21.8501 25.9393C22.0904 27.846 23.7594 29.0274 25.6283 28.7376C26.5448 28.5962 27.2277 28.1874 27.6949 27.4103C27.8364 27.1768 28.0026 27.0937 28.2699 27.0982C29.4605 27.1094 31.8168 27.1026 33.0073 27.1026L33.0006 25.4542C33.0006 25.4542 32.9961 25.4542 32.4884 25.4542C30.797 25.4542 29.1078 25.4542 27.4164 25.4542ZM25.1499 22.4537C26.127 22.4537 27.1041 22.4469 28.0835 22.4582C28.3733 22.4604 28.535 22.3549 28.4541 22.0629C28.3373 21.6384 28.234 21.2005 28.0318 20.8142C27.5489 19.8956 25.8485 19.2511 24.6602 19.4734C23.2001 19.7474 22.3241 20.5559 21.9085 21.9349C21.7805 22.3594 21.8523 22.4514 22.2926 22.4514C23.245 22.4537 24.1974 22.4514 25.1499 22.4514V22.4537Z" fill="black"/>
<path d="M99.3037 31.9852C99.4025 32.6432 99.0836 33.0744 98.6388 33.4675C96.9361 34.9655 94.9909 36.0367 92.8457 36.7599C90.9813 37.3887 89.0719 37.7953 87.102 37.9008C86.318 37.9435 85.5318 38.0243 84.7501 37.9929C82.7734 37.912 80.8236 37.6515 78.9143 37.0968C77.0881 36.5668 75.336 35.875 73.7816 34.779C72.9213 34.1727 72.1508 33.436 71.3579 32.7353C71.2388 32.6297 71.1759 32.4029 71.1737 32.2322C71.158 31.0936 71.1602 29.9527 71.1737 28.8118C71.1737 28.6725 71.2456 28.4614 71.3466 28.4142C71.4387 28.3693 71.6521 28.4592 71.751 28.5535C73.3548 30.1009 75.1878 31.3137 77.2319 32.1806C78.2449 32.6095 79.3164 32.9172 80.3766 33.2204C82.4387 33.8133 84.5569 33.9256 86.6819 33.8043C87.6321 33.7504 88.5845 33.5842 89.5167 33.3799C90.5096 33.1643 91.4979 32.8903 92.4571 32.5556C94.1395 31.9695 95.7029 31.1385 97.1158 30.0447C97.6617 29.6225 98.1738 29.1576 98.7152 28.7287C98.8275 28.6388 99.0162 28.567 99.1375 28.6006C99.2161 28.6209 99.2812 28.8454 99.2857 28.9824C99.3356 30.8069 99.3037 31.9852 99.3037 31.9852Z" fill="black"/>
</svg>
